HIERARCHY
ROOT Hips
{
	OFFSET 0.000000 97.167313 0.000000
	CHANNELS 6 Xposition Yposition Zposition Xrotation Yrotation Zrotation
	JOINT Spine
	{
		OFFSET 0.000000 13.784798 0.064400
		CHANNELS 3 Xrotation Yrotation Zrotation
		JOINT Spine1
		{
			OFFSET 0.000000 12.037903 0.404700
			CHANNELS 3 Xrotation Yrotation Zrotation
			JOINT Spine2
			{
				OFFSET 0.000000 17.795601 0.420200
				CHANNELS 3 Xrotation Yrotation Zrotation
				JOINT Neck
				{
					OFFSET 0.000000 39.131302 11.954600
					CHANNELS 3 Xrotation Yrotation Zrotation
					JOINT Head
					{
						OFFSET 0.000000 14.456192 15.627699
						CHANNELS 3 Xrotation Yrotation Zrotation
						JOINT HeadTop_End
						{
							OFFSET 0.000000 15.703506 7.603401
							CHANNELS 3 Xrotation Yrotation Zrotation
							End Site
							{
								OFFSET 0.000000 17.447403 0.000000
							}
						}
					}
				}
				JOINT LeftShoulder
				{
					OFFSET 17.399500 24.608795 1.168800
					CHANNELS 3 Xrotation Yrotation Zrotation
					JOINT LeftArm
					{
						OFFSET 18.980635 5.765305 1.818600
						CHANNELS 3 Xrotation Yrotation Zrotation
						JOINT LeftForeArm
						{
							OFFSET 49.290169 0.000000 0.000000
							CHANNELS 3 Xrotation Yrotation Zrotation
							JOINT LeftHand
							{
								OFFSET 31.562012 0.000000 0.000000
								CHANNELS 3 Xrotation Yrotation Zrotation
								JOINT LeftHandThumb1
								{
									OFFSET 6.133995 -4.388519 7.076070
									CHANNELS 3 Xrotation Yrotation Zrotation
									JOINT LeftHandThumb2
									{
										OFFSET 6.037666 -3.485840 3.485847
										CHANNELS 3 Xrotation Yrotation Zrotation
										JOINT LeftHandThumb3
										{
											OFFSET 6.496506 -3.750763 3.750761
											CHANNELS 3 Xrotation Yrotation Zrotation
											JOINT LeftHandThumb4
											{
												OFFSET 5.616882 -3.242905 3.242910
												CHANNELS 3 Xrotation Yrotation Zrotation
												End Site
												{
													OFFSET -1.254608 7.132141 0.375429
												}
											}
										}
									}
								}
								JOINT LeftHandPinky1
								{
									OFFSET 18.920792 -0.453171 -11.426712
									CHANNELS 3 Xrotation Yrotation Zrotation
									JOINT LeftHandPinky2
									{
										OFFSET 4.919586 0.000000 0.000000
										CHANNELS 3 Xrotation Yrotation Zrotation
										JOINT LeftHandPinky3
										{
											OFFSET 5.233047 0.000000 0.000000
											CHANNELS 3 Xrotation Yrotation Zrotation
											JOINT LeftHandPinky4
											{
												OFFSET 5.571716 0.000000 0.000000
												CHANNELS 3 Xrotation Yrotation Zrotation
												End Site
												{
													OFFSET -3.459808 4.342407 -0.466164
												}
											}
										}
									}
								}
								JOINT LeftHandRing1
								{
									OFFSET 22.726120 -0.094986 -6.500475
									CHANNELS 3 Xrotation Yrotation Zrotation
									JOINT LeftHandRing2
									{
										OFFSET 6.408615 0.000000 0.000000
										CHANNELS 3 Xrotation Yrotation Zrotation
										JOINT LeftHandRing3
										{
											OFFSET 6.150223 0.000000 0.000000
											CHANNELS 3 Xrotation Yrotation Zrotation
											JOINT LeftHandRing4
											{
												OFFSET 6.145386 0.000000 0.000000
												CHANNELS 3 Xrotation Yrotation Zrotation
												End Site
												{
													OFFSET -3.671402 4.923981 -0.202372
												}
											}
										}
									}
								}
								JOINT LeftHandMiddle1
								{
									OFFSET 23.373947 0.000000 0.000001
									CHANNELS 3 Xrotation Yrotation Zrotation
									JOINT LeftHandMiddle2
									{
										OFFSET 6.996567 0.000000 0.000000
										CHANNELS 3 Xrotation Yrotation Zrotation
										JOINT LeftHandMiddle3
										{
											OFFSET 7.015945 0.000000 0.000000
											CHANNELS 3 Xrotation Yrotation Zrotation
											JOINT LeftHandMiddle4
											{
												OFFSET 7.721573 0.000000 0.000000
												CHANNELS 3 Xrotation Yrotation Zrotation
												End Site
												{
													OFFSET -4.651108 6.158463 0.251582
												}
											}
										}
									}
								}
								JOINT LeftHandIndex1
								{
									OFFSET 21.310577 -0.490082 6.209344
									CHANNELS 3 Xrotation Yrotation Zrotation
									JOINT LeftHandIndex2
									{
										OFFSET 7.536453 0.000000 0.000000
										CHANNELS 3 Xrotation Yrotation Zrotation
										JOINT LeftHandIndex3
										{
											OFFSET 7.512344 0.000000 0.000000
											CHANNELS 3 Xrotation Yrotation Zrotation
											JOINT LeftHandIndex4
											{
												OFFSET 10.212402 0.000000 0.000001
												CHANNELS 3 Xrotation Yrotation Zrotation
												End Site
												{
													OFFSET -5.180801 8.690506 1.388433
												}
											}
										}
									}
								}
							}
						}
					}
				}
				JOINT RightShoulder
				{
					OFFSET -17.399500 24.608795 1.168800
					CHANNELS 3 Xrotation Yrotation Zrotation
					JOINT RightArm
					{
						OFFSET -18.980635 5.765305 1.818600
						CHANNELS 3 Xrotation Yrotation Zrotation
						JOINT RightForeArm
						{
							OFFSET -49.290169 0.000000 0.000000
							CHANNELS 3 Xrotation Yrotation Zrotation
							JOINT RightHand
							{
								OFFSET -31.562012 0.000000 0.000000
								CHANNELS 3 Xrotation Yrotation Zrotation
								JOINT RightHandThumb1
								{
									OFFSET -6.133995 -4.388519 7.076070
									CHANNELS 3 Xrotation Yrotation Zrotation
									JOINT RightHandThumb2
									{
										OFFSET -6.037666 -3.485840 3.485847
										CHANNELS 3 Xrotation Yrotation Zrotation
										JOINT RightHandThumb3
										{
											OFFSET -6.496506 -3.750763 3.750761
											CHANNELS 3 Xrotation Yrotation Zrotation
											JOINT RightHandThumb4
											{
												OFFSET -5.616882 -3.242905 3.242910
												CHANNELS 3 Xrotation Yrotation Zrotation
												End Site
												{
													OFFSET 1.254608 7.132141 0.375429
												}
											}
										}
									}
								}
								JOINT RightHandIndex1
								{
									OFFSET -21.310577 -0.490082 6.209344
									CHANNELS 3 Xrotation Yrotation Zrotation
									JOINT RightHandIndex2
									{
										OFFSET -7.536453 0.000000 0.000000
										CHANNELS 3 Xrotation Yrotation Zrotation
										JOINT RightHandIndex3
										{
											OFFSET -7.512344 0.000000 0.000000
											CHANNELS 3 Xrotation Yrotation Zrotation
											JOINT RightHandIndex4
											{
												OFFSET -10.212402 0.000000 0.000001
												CHANNELS 3 Xrotation Yrotation Zrotation
												End Site
												{
													OFFSET 5.180801 8.690506 1.388433
												}
											}
										}
									}
								}
								JOINT RightHandMiddle1
								{
									OFFSET -23.373947 0.000000 0.000001
									CHANNELS 3 Xrotation Yrotation Zrotation
									JOINT RightHandMiddle2
									{
										OFFSET -6.996567 0.000000 0.000000
										CHANNELS 3 Xrotation Yrotation Zrotation
										JOINT RightHandMiddle3
										{
											OFFSET -7.015945 0.000000 0.000000
											CHANNELS 3 Xrotation Yrotation Zrotation
											JOINT RightHandMiddle4
											{
												OFFSET -7.721573 0.000000 0.000000
												CHANNELS 3 Xrotation Yrotation Zrotation
												End Site
												{
													OFFSET 4.651108 6.158463 0.251582
												}
											}
										}
									}
								}
								JOINT RightHandRing1
								{
									OFFSET -22.726120 -0.094986 -6.500475
									CHANNELS 3 Xrotation Yrotation Zrotation
									JOINT RightHandRing2
									{
										OFFSET -6.408615 0.000000 0.000000
										CHANNELS 3 Xrotation Yrotation Zrotation
										JOINT RightHandRing3
										{
											OFFSET -6.150223 0.000000 0.000000
											CHANNELS 3 Xrotation Yrotation Zrotation
											JOINT RightHandRing4
											{
												OFFSET -6.145386 0.000000 0.000000
												CHANNELS 3 Xrotation Yrotation Zrotation
												End Site
												{
													OFFSET 3.671402 4.923981 -0.202372
												}
											}
										}
									}
								}
								JOINT RightHandPinky1
								{
									OFFSET -18.920792 -0.453171 -11.426712
									CHANNELS 3 Xrotation Yrotation Zrotation
									JOINT RightHandPinky2
									{
										OFFSET -4.919586 0.000000 0.000000
										CHANNELS 3 Xrotation Yrotation Zrotation
										JOINT RightHandPinky3
										{
											OFFSET -5.233047 0.000000 0.000000
											CHANNELS 3 Xrotation Yrotation Zrotation
											JOINT RightHandPinky4
											{
												OFFSET -5.571716 0.000000 0.000000
												CHANNELS 3 Xrotation Yrotation Zrotation
												End Site
												{
													OFFSET 3.459808 4.342407 -0.466164
												}
											}
										}
									}
								}
							}
						}
					}
				}
			}
		}
	}
	JOINT LeftUpLeg
	{
		OFFSET 19.899099 -7.885101 -3.429500
		CHANNELS 3 Xrotation Yrotation Zrotation
		JOINT LeftLeg
		{
			OFFSET 1.745560 -36.997807 10.304700
			CHANNELS 3 Xrotation Yrotation Zrotation
			JOINT LeftFoot
			{
				OFFSET -1.745558 -29.803308 -13.615400
				CHANNELS 3 Xrotation Yrotation Zrotation
				JOINT LeftToeBase
				{
					OFFSET 1.181900 -18.539904 15.226099
					CHANNELS 3 Xrotation Yrotation Zrotation
					JOINT LeftToe_End
					{
						OFFSET -0.863701 1.402801 16.534700
						CHANNELS 3 Xrotation Yrotation Zrotation
						End Site
						{
							OFFSET 0.000000 16.616566 0.000000
						}
					}
				}
			}
		}
	}
	JOINT RightUpLeg
	{
		OFFSET -19.899099 -7.885101 -3.429500
		CHANNELS 3 Xrotation Yrotation Zrotation
		JOINT RightLeg
		{
			OFFSET -1.745560 -36.997807 10.304700
			CHANNELS 3 Xrotation Yrotation Zrotation
			JOINT RightFoot
			{
				OFFSET 1.745558 -29.803308 -13.615400
				CHANNELS 3 Xrotation Yrotation Zrotation
				JOINT RightToeBase
				{
					OFFSET -1.181900 -18.539904 15.226099
					CHANNELS 3 Xrotation Yrotation Zrotation
					JOINT RightToe_End
					{
						OFFSET 0.863701 1.402801 16.534700
						CHANNELS 3 Xrotation Yrotation Zrotation
						End Site
						{
							OFFSET 0.000000 16.616566 0.000000
						}
					}
				}
			}
		}
	}
}
MOTION
Frames: 6
Frame Time: 0.033333
120.715668 79.324493 -5.475198 -5.530008 171.174895 9.652522 -1.546648 0.837041 1.052266 -3.082772 1.070409 0.898464 -3.082772 1.070408 0.898469 2.839873 -20.811914 -1.013790 8.432850 -42.047973 22.969433 0.000001 0.000000 -0.000000 0.955201 1.901736 -17.168807 10.648112 22.692076 -41.196877 37.929372 -27.091063 -12.537999 32.308205 -6.526604 0.622088 -11.704837 -6.638692 -13.043702 1.802587 5.540926 2.039519 0.000013 0.000012 -0.000013 0.000003 0.000001 -0.000001 1.240867 23.305533 -17.148834 -0.495616 -5.427092 -20.961106 0.000003 -0.000000 0.000004 -0.000003 0.000002 -0.000002 2.753191 14.668654 -28.464325 -0.220902 -1.962922 -18.752076 0.000000 0.000002 -0.000006 0.000004 0.000003 0.000000 -0.060997 2.240410 -19.611413 -0.237836 -0.987229 -16.457660 0.000006 -0.000005 0.000001 -0.000003 -0.000001 0.000002 0.803904 -6.865193 -17.143797 0.068010 0.764266 -16.879067 0.000007 0.000004 -0.000009 -0.000004 0.000001 0.000001 4.732115 6.057906 18.105974 3.281555 -8.378585 37.782158 45.856193 15.887146 9.996297 38.320271 9.206704 -11.295472 1.222540 1.671675 4.303680 0.483078 -2.590909 -1.660410 0.000015 0.000004 -0.000017 -0.000002 0.000000 -0.000000 -1.292367 0.960448 13.450085 0.005132 -0.738178 20.831768 0.000010 0.000003 0.000013 -0.000001 0.000000 -0.000001 -1.462674 -0.138845 21.912206 -0.142459 0.493379 14.494681 0.000000 0.000002 -0.000004 0.000001 -0.000000 -0.000004 -7.425742 -9.070409 27.853327 -0.241477 2.215727 17.045371 0.000002 -0.000004 0.000008 -0.000001 0.000002 -0.000005 -5.871194 -14.157258 29.160181 -0.862765 6.941986 26.271503 0.000001 -0.000001 -0.000005 -0.000001 0.000001 -0.000001 -51.355526 -18.655022 0.506296 46.312671 24.785100 6.966472 25.317812 -0.980677 0.224362 -3.334772 5.481561 -15.393706 -0.000001 0.000001 -0.000001 -52.200964 -39.517309 -45.488380 58.317931 27.254564 0.043974 -29.657621 1.967817 -9.361471 -1.665225 4.832360 -1.772529 0.000000 -0.000001 0.000000 
124.969780 80.502777 -5.435249 -5.637986 170.768444 9.881811 -1.519084 0.811933 0.976946 -3.030327 1.005592 0.939042 -3.030325 1.005589 0.939044 3.301300 -20.642135 -0.228929 7.858950 -41.780981 22.489542 0.000000 0.000001 0.000001 0.974658 2.209322 -17.152582 11.183012 23.146951 -41.760279 37.904114 -26.697510 -12.946493 32.607098 -6.157912 -0.134397 -11.704832 -6.638691 -13.043698 1.802587 5.540926 2.039519 0.000015 0.000013 -0.000010 -0.000001 0.000001 -0.000002 1.310675 23.814409 -15.538182 -0.483869 -5.390232 -19.159476 0.000004 -0.000006 0.000004 0.000005 0.000003 -0.000000 2.960839 15.289821 -26.752046 -0.168026 -1.807604 -16.052760 0.000002 0.000002 0.000002 -0.000001 0.000003 0.000004 -0.012845 2.390709 -18.037556 -0.168474 -0.726016 -13.986716 0.000005 -0.000005 0.000004 -0.000005 -0.000004 0.000004 0.803907 -6.865184 -17.143790 0.068013 0.764267 -16.879069 0.000006 0.000006 -0.000007 -0.000000 0.000001 0.000001 4.702239 6.382888 18.353697 3.050297 -8.145409 37.335375 45.737600 15.982853 10.002558 38.093311 9.240811 -11.552351 0.973828 1.628446 3.850538 0.541716 -2.717665 -1.678729 0.000012 0.000002 -0.000016 -0.000001 -0.000001 -0.000000 -1.291066 0.949074 13.302861 0.008464 -0.750052 20.708746 0.000009 0.000005 0.000012 -0.000002 -0.000001 0.000001 -1.455152 -0.158944 21.613181 -0.140173 0.483987 14.371411 -0.000000 0.000003 -0.000007 -0.000000 0.000001 -0.000006 -7.170000 -8.955217 27.514922 -0.238276 2.205812 16.922007 0.000002 -0.000002 0.000005 -0.000001 -0.000001 -0.000003 -5.615177 -14.034785 28.633403 -0.857894 6.933790 26.147614 0.000001 -0.000002 0.000002 0.000000 -0.000002 0.000005 -53.111811 -17.425682 -3.145121 44.666664 24.865456 5.462209 22.754883 -1.636679 -4.569756 -1.845430 5.647214 -12.594090 0.000001 0.000000 -0.000000 -48.124140 -43.449244 -41.346133 55.769201 26.875357 1.096862 -31.076015 3.811211 -12.595376 -1.427138 4.799425 -1.398799 -0.000000 -0.000000 0.000000 
129.079391 81.390808 -5.398399 -5.733557 170.579098 9.809282 -1.507281 0.818012 0.898401 -3.010902 0.961168 1.096028 -3.010902 0.961164 1.096033 3.236613 -20.659323 0.508604 7.485983 -41.601040 21.985481 0.000000 -0.000000 -0.000000 0.975977 2.292451 -17.073578 11.385761 23.462023 -42.073777 37.605953 -25.948237 -13.352376 32.707129 -6.080235 -0.453764 -11.704834 -6.638691 -13.043698 1.802583 5.540926 2.039521 0.000014 0.000010 -0.000012 -0.000000 0.000001 0.000001 1.345676 24.238241 -14.198994 -0.473446 -5.359045 -17.621183 0.000010 -0.000002 0.000001 0.000003 0.000002 -0.000002 3.104727 15.810266 -25.333902 -0.131627 -1.674635 -13.786020 0.000001 0.000003 -0.000001 -0.000004 -0.000001 0.000005 0.024569 2.516554 -16.742457 -0.120237 -0.508847 -11.953547 0.000002 -0.000005 0.000006 -0.000001 -0.000003 0.000009 0.803904 -6.865191 -17.143795 0.068007 0.764271 -16.879064 0.000010 0.000004 -0.000009 -0.000005 -0.000000 -0.000003 4.716820 6.503273 18.658438 2.880606 -8.078203 36.923490 45.692364 16.047985 10.048351 38.063073 9.400483 -11.866020 0.636409 1.572975 3.236330 0.621575 -2.889166 -1.703474 0.000014 0.000005 -0.000016 -0.000000 -0.000001 -0.000000 -1.289282 0.933623 13.103374 0.013008 -0.766121 20.542103 0.000008 0.000001 0.000013 -0.000002 -0.000001 -0.000001 -1.444511 -0.188792 21.208234 -0.136913 0.470400 14.204433 0.000001 0.000001 -0.000007 -0.000000 0.000001 -0.000004 -6.821582 -8.804230 27.056061 -0.233996 2.192329 16.754884 0.000001 -0.000004 0.000006 0.000000 -0.000000 -0.000002 -5.265115 -13.876622 27.919754 -0.851365 6.922645 25.979779 0.000002 -0.000001 -0.000001 -0.000001 -0.000001 0.000007 -54.714607 -16.490406 -6.863200 40.912181 24.174464 4.276472 22.772387 -2.251003 -10.414669 -0.739958 6.157226 -8.306075 0.000001 -0.000000 -0.000000 -42.985034 -47.203857 -36.498308 52.657470 26.603203 2.548970 -32.084971 5.574753 -15.560643 -1.214485 4.771681 -1.062538 -0.000000 -0.000000 -0.000000 
133.087189 81.931976 -5.345553 -5.785602 170.383877 9.473645 -1.483162 0.902946 0.852380 -2.967388 1.031001 1.329285 -2.967388 1.031002 1.329286 2.950872 -20.618036 1.207286 7.030566 -41.287353 21.452436 -0.000000 0.000002 -0.000002 0.960486 2.319357 -16.741721 11.277902 23.507978 -42.262287 37.196500 -25.190880 -13.646598 32.753721 -6.117641 -0.458192 -11.704829 -6.638692 -13.043696 1.802583 5.540922 2.039518 0.000018 0.000012 -0.000013 0.000001 0.000001 0.000001 1.356961 24.541097 -13.227912 -0.466114 -5.335124 -16.451175 0.000003 -0.000003 0.000003 -0.000000 0.000003 -0.000000 3.190464 16.183792 -24.309830 -0.109426 -1.575053 -12.108415 0.000004 -0.000001 0.000000 0.000001 0.000003 0.000000 0.049472 2.605521 -15.838172 -0.089975 -0.356445 -10.533985 0.000002 -0.000006 0.000002 0.000001 0.000001 0.000004 0.803908 -6.865186 -17.143792 0.068010 0.764264 -16.879066 0.000005 0.000004 -0.000009 -0.000002 0.000002 -0.000003 4.720020 6.774084 19.092873 2.828559 -8.285749 36.416762 45.699805 16.020943 10.181251 38.067236 9.545037 -12.073104 0.222689 1.510012 2.484389 0.719091 -3.099132 -1.733427 0.000014 0.000005 -0.000017 -0.000001 0.000000 0.000002 -1.287054 0.914748 12.859305 0.018580 -0.785811 20.338184 0.000010 0.000006 0.000011 -0.000001 -0.000003 -0.000002 -1.431758 -0.225308 20.712736 -0.132689 0.452493 14.000204 0.000000 0.000001 -0.000006 0.000001 0.000001 -0.000006 -6.392307 -8.627495 26.494029 -0.228623 2.175047 16.550494 0.000003 -0.000003 0.000008 -0.000003 0.000001 -0.000002 -4.831965 -13.695311 27.046641 -0.843508 6.908955 25.774429 -0.000001 -0.000000 -0.000003 0.000002 -0.000000 0.000002 -56.068767 -15.537251 -10.586540 36.372810 23.655872 3.387111 23.927993 -2.921455 -16.261135 -2.960452 6.312121 0.231368 -0.000001 0.000000 -0.000000 -36.545474 -50.468049 -30.403583 49.322930 26.310896 4.122603 -32.880923 7.230860 -18.355693 -1.046290 4.740989 -0.784265 -0.000000 -0.000000 -0.000000 
137.062180 82.133896 -5.258042 -5.788992 170.065522 8.924150 -1.440291 1.053816 0.841925 -2.887541 1.191163 1.602631 -2.887538 1.191159 1.602633 2.884245 -20.364738 2.032672 6.253292 -40.732940 20.812937 -0.000000 0.000000 -0.000001 0.930111 2.441659 -16.054201 11.015797 23.300873 -42.418828 36.924009 -24.727933 -13.750274 32.908422 -6.069588 -0.334338 -11.704828 -6.638690 -13.043699 1.802588 5.540927 2.039520 0.000017 0.000009 -0.000011 -0.000002 0.000002 -0.000001 1.356311 24.712973 -12.647567 -0.465020 -5.317715 -15.677625 0.000002 -0.000005 -0.000001 -0.000000 -0.000003 -0.000003 3.230557 16.396260 -23.701620 -0.097595 -1.512109 -11.056714 0.000000 0.000004 -0.000001 -0.000001 0.000002 0.000003 0.061625 2.650087 -15.353362 -0.074916 -0.274591 -9.773504 0.000006 -0.000007 0.000004 -0.000003 -0.000001 0.000001 0.803910 -6.865186 -17.143790 0.068008 0.764266 -16.879067 0.000008 0.000001 -0.000003 0.000000 -0.000000 -0.000001 4.670924 7.401433 19.710369 2.844435 -8.719697 35.722808 45.697589 15.863522 10.396356 37.976514 9.599054 -12.111245 -0.248148 1.445110 1.629733 0.829631 -3.337720 -1.767004 0.000015 0.000004 -0.000016 -0.000000 -0.000001 -0.000001 -1.284482 0.893303 12.582031 0.024924 -0.808147 20.106559 0.000009 0.000003 0.000015 -0.000001 -0.000005 -0.000002 -1.417552 -0.266945 20.149902 -0.128694 0.435626 13.768029 -0.000001 0.000001 -0.000002 0.000001 0.000000 -0.000001 -5.900927 -8.437451 25.854961 -0.221527 2.151072 16.318739 -0.000000 -0.000003 0.000010 -0.000000 0.000001 -0.000005 -4.333885 -13.505833 26.055054 -0.834674 6.893334 25.541195 0.000001 -0.000001 0.000002 -0.000001 -0.000000 0.000002 -56.957180 -14.264468 -14.237037 31.844411 23.964800 2.661578 25.422715 -3.660671 -20.785106 -3.799255 5.580727 2.422275 0.000000 -0.000000 -0.000001 -28.644772 -52.931121 -22.725629 45.909181 25.893082 5.605485 -33.548045 8.734191 -20.990440 -0.926999 4.718217 -0.586275 -0.000000 -0.000001 -0.000000 
137.062180 82.133896 -5.258042 -5.788992 170.065522 8.924150 -1.440291 1.053816 0.841925 -2.887541 1.191163 1.602631 -2.887538 1.191159 1.602633 2.884245 -20.364738 2.032672 6.253292 -40.732940 20.812937 -0.000000 0.000000 -0.000001 0.930111 2.441659 -16.054201 11.015797 23.300873 -42.418828 36.924009 -24.727933 -13.750274 32.908422 -6.069588 -0.334338 -11.704828 -6.638690 -13.043699 1.802588 5.540927 2.039520 0.000017 0.000009 -0.000011 -0.000002 0.000002 -0.000001 1.356311 24.712973 -12.647567 -0.465020 -5.317715 -15.677625 0.000002 -0.000005 -0.000001 -0.000000 -0.000003 -0.000003 3.230557 16.396260 -23.701620 -0.097595 -1.512109 -11.056714 0.000000 0.000004 -0.000001 -0.000001 0.000002 0.000003 0.061625 2.650087 -15.353362 -0.074916 -0.274591 -9.773504 0.000006 -0.000007 0.000004 -0.000003 -0.000001 0.000001 0.803910 -6.865186 -17.143790 0.068008 0.764266 -16.879067 0.000008 0.000001 -0.000003 0.000000 -0.000000 -0.000001 4.670924 7.401433 19.710369 2.844435 -8.719697 35.722808 45.697589 15.863522 10.396356 37.976514 9.599054 -12.111245 -0.248148 1.445110 1.629733 0.829631 -3.337720 -1.767004 0.000015 0.000004 -0.000016 -0.000000 -0.000001 -0.000001 -1.284482 0.893303 12.582031 0.024924 -0.808147 20.106559 0.000009 0.000003 0.000015 -0.000001 -0.000005 -0.000002 -1.417552 -0.266945 20.149902 -0.128694 0.435626 13.768029 -0.000001 0.000001 -0.000002 0.000001 0.000000 -0.000001 -5.900927 -8.437451 25.854961 -0.221527 2.151072 16.318739 -0.000000 -0.000003 0.000010 -0.000000 0.000001 -0.000005 -4.333885 -13.505833 26.055054 -0.834674 6.893334 25.541195 0.000001 -0.000001 0.000002 -0.000001 -0.000000 0.000002 -56.957180 -14.264468 -14.237037 31.844411 23.964800 2.661578 25.422715 -3.660671 -20.785106 -3.799255 5.580727 2.422275 0.000000 -0.000000 -0.000001 -28.644772 -52.931121 -22.725629 45.909181 25.893082 5.605485 -33.548045 8.734191 -20.990440 -0.926999 4.718217 -0.586275 -0.000000 -0.000001 -0.000000 
